<?xml version="1.0" encoding="UTF-8" standalone="no"?>
<!DOCTYPE svg PUBLIC "-//W3C//DTD SVG 1.1//EN" "http://www.w3.org/Graphics/SVG/1.1/DTD/svg11.dtd">
<svg width="100%" height="100%" viewBox="0 0 920 244" version="1.1" xmlns="http://www.w3.org/2000/svg" xmlns:xlink="http://www.w3.org/1999/xlink" xml:space="preserve" xmlns:serif="http://www.serif.com/" style="fill-rule:evenodd;clip-rule:evenodd;">
    <g transform="matrix(4.166667,0,0,4.166667,44.522527,237.535776)">
        <path d="M0,-19.684L-4.35,-15.334L-4.35,-4.35L0,0L30.968,0L35.318,-4.35L35.318,-15.334L30.968,-19.684L0,-19.684Z" style="fill:white;fill-rule:nonzero;"/>
    </g>
    <g transform="matrix(4.166667,0,0,4.166667,43.67461,238.381193)">
        <path d="M0,-20.09L-4.434,-15.656L-4.434,-4.434L0,0L0.084,0.085L31.291,0.085L31.375,0L35.809,-4.434L35.809,-15.656L31.375,-20.09L31.291,-20.175L0.084,-20.175L0,-20.09Z" style="fill:none;fill-rule:nonzero;stroke:black;stroke-width:0.58px;"/>
    </g>
    <g transform="matrix(4.166667,0,0,4.166667,45.34961,235.53786)">
        <path d="M0,-18.725C-1.356,-17.369 -2.713,-16.012 -4.069,-14.657L-4.069,-4.069C-2.713,-2.713 -1.356,-1.357 0,0L30.571,0C31.927,-1.357 33.284,-2.713 34.64,-4.069L34.64,-14.657C33.284,-16.012 31.928,-17.369 30.571,-18.725L0,-18.725Z" style="fill:none;fill-rule:nonzero;stroke:black;stroke-width:0.19px;"/>
    </g>
    <g transform="matrix(4.166667,0,0,4.166667,46.086694,183.675776)">
        <path d="M0,-5.575L-2.835,-2.788L0,0L30.047,0L32.882,-2.788L30.047,-5.575L0,-5.575Z" style="fill:rgb(130,100,48);fill-rule:nonzero;stroke:rgb(35,31,32);stroke-width:0.23px;stroke-linejoin:round;stroke-miterlimit:2;"/>
    </g>
    <g transform="matrix(4.166667,0,0,4.166667,276.730084,237.535776)">
        <path d="M0,-19.684L-4.35,-15.334L-4.35,-4.35L0,0L30.968,0L35.318,-4.35L35.318,-15.334L30.968,-19.684L0,-19.684Z" style="fill:white;fill-rule:nonzero;"/>
    </g>
    <g transform="matrix(4.166667,0,0,4.166667,275.882584,238.381193)">
        <path d="M0,-20.09L-4.434,-15.656L-4.434,-4.434L0,0L0.084,0.085L31.291,0.085L31.375,0L35.809,-4.434L35.809,-15.656L31.375,-20.09L31.291,-20.175L0.084,-20.175L0,-20.09Z" style="fill:none;fill-rule:nonzero;stroke:black;stroke-width:0.58px;"/>
    </g>
    <g transform="matrix(4.166667,0,0,4.166667,277.557584,235.53786)">
        <path d="M0,-18.725C-1.356,-17.369 -2.713,-16.012 -4.069,-14.657L-4.069,-4.069C-2.713,-2.713 -1.356,-1.357 0,0L30.571,0C31.927,-1.357 33.284,-2.713 34.64,-4.069L34.64,-14.657C33.284,-16.012 31.928,-17.369 30.571,-18.725L0,-18.725Z" style="fill:none;fill-rule:nonzero;stroke:black;stroke-width:0.19px;"/>
    </g>
    <g transform="matrix(4.166667,0,0,4.166667,278.294667,183.675776)">
        <path d="M0,-5.575L-2.835,-2.788L0,0L30.047,0L32.882,-2.788L30.047,-5.575L0,-5.575Z" style="fill:rgb(130,100,48);fill-rule:nonzero;stroke:rgb(35,31,32);stroke-width:0.23px;stroke-linejoin:round;stroke-miterlimit:2;"/>
    </g>
    <g transform="matrix(4.166667,0,0,4.166667,741.120765,237.535776)">
        <path d="M0,-19.684L-4.35,-15.334L-4.35,-4.35L0,0L30.968,0L35.318,-4.35L35.318,-15.334L30.968,-19.684L0,-19.684Z" style="fill:white;fill-rule:nonzero;"/>
    </g>
    <g transform="matrix(4.166667,0,0,4.166667,740.272848,238.381193)">
        <path d="M0,-20.09L-4.434,-15.656L-4.434,-4.434L0,0L0.084,0.085L31.291,0.085L31.375,0L35.809,-4.434L35.809,-15.656L31.375,-20.09L31.291,-20.175L0.084,-20.175L0,-20.09Z" style="fill:none;fill-rule:nonzero;stroke:black;stroke-width:0.58px;"/>
    </g>
    <g transform="matrix(4.166667,0,0,4.166667,741.948265,235.53786)">
        <path d="M0,-18.725C-1.356,-17.369 -2.713,-16.012 -4.069,-14.657L-4.069,-4.069C-2.713,-2.713 -1.356,-1.357 0,0L30.571,0C31.927,-1.357 33.284,-2.713 34.64,-4.069L34.64,-14.657C33.284,-16.012 31.928,-17.369 30.571,-18.725L0,-18.725Z" style="fill:none;fill-rule:nonzero;stroke:black;stroke-width:0.19px;"/>
    </g>
    <g transform="matrix(4.166667,0,0,4.166667,742.685348,183.675776)">
        <path d="M0,-5.575L-2.835,-2.788L0,0L30.047,0L32.882,-2.788L30.047,-5.575L0,-5.575Z" style="fill:rgb(130,100,48);fill-rule:nonzero;stroke:rgb(35,31,32);stroke-width:0.23px;stroke-linejoin:round;stroke-miterlimit:2;"/>
    </g>
    <g transform="matrix(4.166667,0,0,4.166667,35.433333,132.13286)">
        <path d="M0,-28.522L-8.504,-20.018L-8.504,-2.835L-5.669,0L209.291,0L212.126,-2.835L212.126,-20.018L203.622,-28.522L0,-28.522Z" style="fill:rgb(230,161,52);fill-rule:nonzero;stroke:black;stroke-width:0.35px;stroke-linejoin:round;stroke-miterlimit:2;"/>
    </g>
    <g transform="matrix(4.166667,0,0,4.166667,31.41625,23.068276)">
        <g>
            <path d="M0,-5.289L-1.788,-3.502L-1.788,-1.788L0,0L25.362,0L27.15,-1.788L27.15,-3.502L25.362,-5.289L0,-5.289Z" style="fill:rgb(130,100,48);fill-rule:nonzero;stroke:rgb(35,31,32);stroke-width:0.35px;"/>
            <g transform="matrix(1,0,0,1,0,25.035098)">
                <path d="M0,-13.078L-1.788,-11.291L-1.788,-1.788L0,0L25.362,0L27.15,-1.788L27.15,-11.291L25.362,-13.078L0,-13.078Z" style="fill:rgb(130,100,48);fill-rule:nonzero;stroke:rgb(35,31,32);stroke-width:0.35px;"/>
            </g>
            <g transform="matrix(1,0,0,1,0,11.498099)">
                <path d="M0,-5.29L-1.788,-3.502L-1.788,-1.788L0,0L25.362,0L27.15,-1.788L27.15,-3.502L25.362,-5.29L0,-5.29Z" style="fill:rgb(130,100,48);fill-rule:nonzero;stroke:rgb(35,31,32);stroke-width:0.35px;"/>
            </g>
            <g transform="matrix(1,0,0,1,0,5.7491)">
                <path d="M0,-5.29L-1.788,-3.502L-1.788,-1.788L0,0L25.362,0L27.15,-1.788L27.15,-3.502L25.362,-5.29L0,-5.29Z" style="fill:rgb(130,100,48);fill-rule:nonzero;stroke:rgb(35,31,32);stroke-width:0.35px;"/>
            </g>
            <g transform="matrix(1,0,0,1,35.853897,0)">
                <path d="M0,-5.289L-1.788,-3.502L-1.788,-1.788L0,0L25.362,0L27.15,-1.788L27.15,-3.502L25.362,-5.289L0,-5.289Z" style="fill:rgb(130,100,48);fill-rule:nonzero;stroke:rgb(35,31,32);stroke-width:0.35px;"/>
            </g>
            <g transform="matrix(1,0,0,1,35.853897,25.035098)">
                <path d="M0,-13.078L-1.788,-11.291L-1.788,-1.788L0,0L25.362,0L27.15,-1.788L27.15,-11.291L25.362,-13.078L0,-13.078Z" style="fill:rgb(130,100,48);fill-rule:nonzero;stroke:rgb(35,31,32);stroke-width:0.35px;"/>
            </g>
            <g transform="matrix(1,0,0,1,35.853897,11.498099)">
                <path d="M0,-5.29L-1.788,-3.502L-1.788,-1.788L0,0L25.362,0L27.15,-1.788L27.15,-3.502L25.362,-5.29L0,-5.29Z" style="fill:rgb(130,100,48);fill-rule:nonzero;stroke:rgb(35,31,32);stroke-width:0.35px;"/>
            </g>
            <g transform="matrix(1,0,0,1,35.853897,5.7491)">
                <path d="M0,-5.29L-1.788,-3.502L-1.788,-1.788L0,0L25.362,0L27.15,-1.788L27.15,-3.502L25.362,-5.29L0,-5.29Z" style="fill:rgb(130,100,48);fill-rule:nonzero;stroke:rgb(35,31,32);stroke-width:0.35px;"/>
            </g>
            <g transform="matrix(1,0,0,1,71.707594,0)">
                <path d="M0,-5.289L-1.788,-3.502L-1.788,-1.788L0,0L25.362,0L27.15,-1.788L27.15,-3.502L25.362,-5.289L0,-5.289Z" style="fill:rgb(130,100,48);fill-rule:nonzero;stroke:rgb(35,31,32);stroke-width:0.35px;"/>
            </g>
            <g transform="matrix(1,0,0,1,71.707594,25.035098)">
                <path d="M0,-13.078L-1.788,-11.291L-1.788,-1.788L0,0L25.362,0L27.15,-1.788L27.15,-11.291L25.362,-13.078L0,-13.078Z" style="fill:rgb(130,100,48);fill-rule:nonzero;stroke:rgb(35,31,32);stroke-width:0.35px;"/>
            </g>
            <g transform="matrix(1,0,0,1,71.707594,11.498099)">
                <path d="M0,-5.29L-1.788,-3.502L-1.788,-1.788L0,0L25.362,0L27.15,-1.788L27.15,-3.502L25.362,-5.29L0,-5.29Z" style="fill:rgb(130,100,48);fill-rule:nonzero;stroke:rgb(35,31,32);stroke-width:0.35px;"/>
            </g>
            <g transform="matrix(1,0,0,1,71.707594,5.7491)">
                <path d="M0,-5.29L-1.788,-3.502L-1.788,-1.788L0,0L25.362,0L27.15,-1.788L27.15,-3.502L25.362,-5.29L0,-5.29Z" style="fill:rgb(130,100,48);fill-rule:nonzero;stroke:rgb(35,31,32);stroke-width:0.35px;"/>
            </g>
            <g transform="matrix(1,0,0,1,107.561291,0)">
                <path d="M0,-5.289L-1.788,-3.502L-1.788,-1.788L0,0L25.362,0L27.15,-1.788L27.15,-3.502L25.362,-5.289L0,-5.289Z" style="fill:rgb(130,100,48);fill-rule:nonzero;stroke:rgb(35,31,32);stroke-width:0.35px;"/>
            </g>
            <g transform="matrix(1,0,0,1,107.561291,25.035098)">
                <path d="M0,-13.078L-1.788,-11.291L-1.788,-1.788L0,0L25.362,0L27.15,-1.788L27.15,-11.291L25.362,-13.078L0,-13.078Z" style="fill:rgb(130,100,48);fill-rule:nonzero;stroke:rgb(35,31,32);stroke-width:0.35px;"/>
            </g>
            <g transform="matrix(1,0,0,1,107.561291,11.498099)">
                <path d="M0,-5.29L-1.788,-3.502L-1.788,-1.788L0,0L25.362,0L27.15,-1.788L27.15,-3.502L25.362,-5.29L0,-5.29Z" style="fill:rgb(130,100,48);fill-rule:nonzero;stroke:rgb(35,31,32);stroke-width:0.35px;"/>
            </g>
            <g transform="matrix(1,0,0,1,107.561291,5.7491)">
                <path d="M0,-5.29L-1.788,-3.502L-1.788,-1.788L0,0L25.362,0L27.15,-1.788L27.15,-3.502L25.362,-5.29L0,-5.29Z" style="fill:rgb(130,100,48);fill-rule:nonzero;stroke:rgb(35,31,32);stroke-width:0.35px;"/>
            </g>
            <g transform="matrix(1,0,0,1,143.415089,0)">
                <path d="M0,-5.289L-1.788,-3.502L-1.788,-1.788L0,0L25.362,0L27.15,-1.788L27.15,-3.502L25.362,-5.289L0,-5.289Z" style="fill:rgb(130,100,48);fill-rule:nonzero;stroke:rgb(35,31,32);stroke-width:0.35px;"/>
            </g>
            <g transform="matrix(1,0,0,1,143.415089,25.035098)">
                <path d="M0,-13.078L-1.788,-11.291L-1.788,-1.788L0,0L25.362,0L27.15,-1.788L27.15,-11.291L25.362,-13.078L0,-13.078Z" style="fill:rgb(130,100,48);fill-rule:nonzero;stroke:rgb(35,31,32);stroke-width:0.35px;"/>
            </g>
            <g transform="matrix(1,0,0,1,143.415089,11.498099)">
                <path d="M0,-5.29L-1.788,-3.502L-1.788,-1.788L0,0L25.362,0L27.15,-1.788L27.15,-3.502L25.362,-5.29L0,-5.29Z" style="fill:rgb(130,100,48);fill-rule:nonzero;stroke:rgb(35,31,32);stroke-width:0.35px;"/>
            </g>
            <g transform="matrix(1,0,0,1,143.415089,5.7491)">
                <path d="M0,-5.29L-1.788,-3.502L-1.788,-1.788L0,0L25.362,0L27.15,-1.788L27.15,-3.502L25.362,-5.29L0,-5.29Z" style="fill:rgb(130,100,48);fill-rule:nonzero;stroke:rgb(35,31,32);stroke-width:0.35px;"/>
            </g>
            <g transform="matrix(1,0,0,1,179.268786,0)">
                <path d="M0,-5.289L-1.788,-3.502L-1.788,-1.788L0,0L25.362,0L27.15,-1.788L27.15,-3.502L25.362,-5.289L0,-5.289Z" style="fill:rgb(130,100,48);fill-rule:nonzero;stroke:rgb(35,31,32);stroke-width:0.35px;"/>
            </g>
            <g transform="matrix(1,0,0,1,179.268786,25.035098)">
                <path d="M0,-13.078L-1.788,-11.291L-1.788,-1.788L0,0L25.362,0L27.15,-1.788L27.15,-11.291L25.362,-13.078L0,-13.078Z" style="fill:rgb(130,100,48);fill-rule:nonzero;stroke:rgb(35,31,32);stroke-width:0.35px;"/>
            </g>
            <g transform="matrix(1,0,0,1,179.268786,11.498099)">
                <path d="M0,-5.29L-1.788,-3.502L-1.788,-1.788L0,0L25.362,0L27.15,-1.788L27.15,-3.502L25.362,-5.29L0,-5.29Z" style="fill:rgb(130,100,48);fill-rule:nonzero;stroke:rgb(35,31,32);stroke-width:0.35px;"/>
            </g>
            <g transform="matrix(1,0,0,1,179.268786,5.7491)">
                <path d="M0,-5.29L-1.788,-3.502L-1.788,-1.788L0,0L25.362,0L27.15,-1.788L27.15,-3.502L25.362,-5.29L0,-5.29Z" style="fill:rgb(130,100,48);fill-rule:nonzero;stroke:rgb(35,31,32);stroke-width:0.35px;"/>
            </g>
        </g>
    </g>
    <g transform="matrix(4.166667,0,0,4.166667,33.042917,122.64911)">
        <path d="M0,-5.245L-1.134,-4.111L-1.134,-1.134L0,0L24.582,0L25.716,-1.134L25.716,-4.111L24.582,-5.245L0,-5.245Z" style="fill:rgb(132,27,33);fill-rule:nonzero;stroke:black;stroke-width:0.23px;"/>
    </g>
    <g transform="matrix(4.166667,0,0,4.166667,84.254583,8.628276)">
        <path d="M0,20.58C5.556,20.58 10.06,15.974 10.06,10.29C10.06,4.606 5.556,0 0,0C-5.556,0 -10.06,4.606 -10.06,10.29C-10.06,15.974 -5.556,20.58 0,20.58" style="fill:white;fill-rule:nonzero;"/>
    </g>
    <g transform="matrix(4.166667,0,0,4.166667,84.254583,8.628276)">
        <path d="M0,20.58C5.556,20.58 10.06,15.974 10.06,10.29C10.06,4.606 5.556,0 0,0C-5.556,0 -10.06,4.606 -10.06,10.29C-10.06,15.974 -5.556,20.58 0,20.58Z" style="fill:none;fill-rule:nonzero;stroke:black;stroke-width:0.63px;"/>
    </g>
    <g transform="matrix(4.166667,0,0,4.166667,84.254583,13.542026)">
        <path d="M0,18.221C4.921,18.221 8.91,14.142 8.91,9.111C8.91,4.079 4.921,0 0,0C-4.921,0 -8.911,4.079 -8.911,9.111C-8.911,14.142 -4.921,18.221 0,18.221" style="fill:white;fill-rule:nonzero;"/>
    </g>
    <g transform="matrix(4.166667,0,0,4.166667,84.254583,13.542026)">
        <path d="M0,18.221C4.921,18.221 8.91,14.142 8.91,9.111C8.91,4.079 4.921,0 0,0C-4.921,0 -8.911,4.079 -8.911,9.111C-8.911,14.142 -4.921,18.221 0,18.221Z" style="fill:none;fill-rule:nonzero;stroke:black;stroke-width:0.16px;"/>
    </g>
    <g transform="matrix(4.166667,0,0,4.166667,182.433333,122.64911)">
        <path d="M0,-5.245L-1.134,-4.111L-1.134,-1.134L0,0L24.582,0L25.716,-1.134L25.716,-4.111L24.582,-5.245L0,-5.245Z" style="fill:rgb(132,27,33);fill-rule:nonzero;stroke:black;stroke-width:0.23px;"/>
    </g>
    <g transform="matrix(4.166667,0,0,4.166667,233.645,8.628276)">
        <path d="M0,20.58C5.556,20.58 10.06,15.974 10.06,10.29C10.06,4.606 5.556,0 0,0C-5.556,0 -10.06,4.606 -10.06,10.29C-10.06,15.974 -5.556,20.58 0,20.58" style="fill:white;fill-rule:nonzero;"/>
    </g>
    <g transform="matrix(4.166667,0,0,4.166667,233.645,8.628276)">
        <path d="M0,20.58C5.556,20.58 10.06,15.974 10.06,10.29C10.06,4.606 5.556,0 0,0C-5.556,0 -10.06,4.606 -10.06,10.29C-10.06,15.974 -5.556,20.58 0,20.58Z" style="fill:none;fill-rule:nonzero;stroke:black;stroke-width:0.63px;"/>
    </g>
    <g transform="matrix(4.166667,0,0,4.166667,233.645,13.542026)">
        <path d="M0,18.221C4.921,18.221 8.911,14.142 8.911,9.111C8.911,4.079 4.921,0 0,0C-4.921,0 -8.91,4.079 -8.91,9.111C-8.91,14.142 -4.921,18.221 0,18.221" style="fill:white;fill-rule:nonzero;"/>
    </g>
    <g transform="matrix(4.166667,0,0,4.166667,233.645,13.542026)">
        <path d="M0,18.221C4.921,18.221 8.911,14.142 8.911,9.111C8.911,4.079 4.921,0 0,0C-4.921,0 -8.91,4.079 -8.91,9.111C-8.91,14.142 -4.921,18.221 0,18.221Z" style="fill:none;fill-rule:nonzero;stroke:black;stroke-width:0.16px;"/>
    </g>
    <g transform="matrix(4.166667,0,0,4.166667,331.824167,122.64911)">
        <path d="M0,-5.245L-1.134,-4.111L-1.134,-1.134L0,0L24.582,0L25.716,-1.134L25.716,-4.111L24.582,-5.245L0,-5.245Z" style="fill:rgb(132,27,33);fill-rule:nonzero;stroke:black;stroke-width:0.23px;"/>
    </g>
    <g transform="matrix(4.166667,0,0,4.166667,383.03625,8.628276)">
        <path d="M0,20.58C5.556,20.58 10.06,15.974 10.06,10.29C10.06,4.606 5.556,0 0,0C-5.556,0 -10.06,4.606 -10.06,10.29C-10.06,15.974 -5.556,20.58 0,20.58" style="fill:white;fill-rule:nonzero;"/>
    </g>
    <g transform="matrix(4.166667,0,0,4.166667,383.03625,8.628276)">
        <path d="M0,20.58C5.556,20.58 10.06,15.974 10.06,10.29C10.06,4.606 5.556,0 0,0C-5.556,0 -10.06,4.606 -10.06,10.29C-10.06,15.974 -5.556,20.58 0,20.58Z" style="fill:none;fill-rule:nonzero;stroke:black;stroke-width:0.63px;"/>
    </g>
    <g transform="matrix(4.166667,0,0,4.166667,383.03625,13.542026)">
        <path d="M0,18.221C4.921,18.221 8.91,14.142 8.91,9.111C8.91,4.079 4.921,0 0,0C-4.921,0 -8.91,4.079 -8.91,9.111C-8.91,14.142 -4.921,18.221 0,18.221" style="fill:white;fill-rule:nonzero;"/>
    </g>
    <g transform="matrix(4.166667,0,0,4.166667,383.03625,13.542026)">
        <path d="M0,18.221C4.921,18.221 8.91,14.142 8.91,9.111C8.91,4.079 4.921,0 0,0C-4.921,0 -8.91,4.079 -8.91,9.111C-8.91,14.142 -4.921,18.221 0,18.221Z" style="fill:none;fill-rule:nonzero;stroke:black;stroke-width:0.16px;"/>
    </g>
    <g transform="matrix(4.166667,0,0,4.166667,481.215,122.64911)">
        <path d="M0,-5.245L-1.134,-4.111L-1.134,-1.134L0,0L24.582,0L25.716,-1.134L25.716,-4.111L24.582,-5.245L0,-5.245Z" style="fill:rgb(132,27,33);fill-rule:nonzero;stroke:black;stroke-width:0.23px;"/>
    </g>
    <g transform="matrix(4.166667,0,0,4.166667,532.426667,8.628276)">
        <path d="M0,20.58C5.556,20.58 10.06,15.974 10.06,10.29C10.06,4.606 5.556,0 0,0C-5.556,0 -10.06,4.606 -10.06,10.29C-10.06,15.974 -5.556,20.58 0,20.58" style="fill:white;fill-rule:nonzero;"/>
    </g>
    <g transform="matrix(4.166667,0,0,4.166667,532.426667,8.628276)">
        <path d="M0,20.58C5.556,20.58 10.06,15.974 10.06,10.29C10.06,4.606 5.556,0 0,0C-5.556,0 -10.06,4.606 -10.06,10.29C-10.06,15.974 -5.556,20.58 0,20.58Z" style="fill:none;fill-rule:nonzero;stroke:black;stroke-width:0.63px;"/>
    </g>
    <g transform="matrix(4.166667,0,0,4.166667,532.426667,13.542026)">
        <path d="M0,18.221C4.921,18.221 8.91,14.142 8.91,9.111C8.91,4.079 4.921,0 0,0C-4.921,0 -8.91,4.079 -8.91,9.111C-8.91,14.142 -4.921,18.221 0,18.221" style="fill:white;fill-rule:nonzero;"/>
    </g>
    <g transform="matrix(4.166667,0,0,4.166667,532.426667,13.542026)">
        <path d="M0,18.221C4.921,18.221 8.91,14.142 8.91,9.111C8.91,4.079 4.921,0 0,0C-4.921,0 -8.91,4.079 -8.91,9.111C-8.91,14.142 -4.921,18.221 0,18.221Z" style="fill:none;fill-rule:nonzero;stroke:black;stroke-width:0.16px;"/>
    </g>
    <g transform="matrix(4.166667,0,0,4.166667,630.605417,122.64911)">
        <path d="M0,-5.245L-1.134,-4.111L-1.134,-1.134L0,0L24.582,0L25.716,-1.134L25.716,-4.111L24.582,-5.245L0,-5.245Z" style="fill:rgb(132,27,33);fill-rule:nonzero;stroke:black;stroke-width:0.23px;"/>
    </g>
    <g transform="matrix(4.166667,0,0,4.166667,681.817083,8.628276)">
        <path d="M0,20.58C5.556,20.58 10.06,15.974 10.06,10.29C10.06,4.606 5.556,0 0,0C-5.556,0 -10.06,4.606 -10.06,10.29C-10.06,15.974 -5.556,20.58 0,20.58" style="fill:white;fill-rule:nonzero;"/>
    </g>
    <g transform="matrix(4.166667,0,0,4.166667,681.817083,8.628276)">
        <path d="M0,20.58C5.556,20.58 10.06,15.974 10.06,10.29C10.06,4.606 5.556,0 0,0C-5.556,0 -10.06,4.606 -10.06,10.29C-10.06,15.974 -5.556,20.58 0,20.58Z" style="fill:none;fill-rule:nonzero;stroke:black;stroke-width:0.63px;"/>
    </g>
    <g transform="matrix(4.166667,0,0,4.166667,681.817083,13.542026)">
        <path d="M0,18.221C4.921,18.221 8.91,14.142 8.91,9.111C8.91,4.079 4.921,0 0,0C-4.921,0 -8.91,4.079 -8.91,9.111C-8.91,14.142 -4.921,18.221 0,18.221" style="fill:white;fill-rule:nonzero;"/>
    </g>
    <g transform="matrix(4.166667,0,0,4.166667,681.817083,13.542026)">
        <path d="M0,18.221C4.921,18.221 8.91,14.142 8.91,9.111C8.91,4.079 4.921,0 0,0C-4.921,0 -8.91,4.079 -8.91,9.111C-8.91,14.142 -4.921,18.221 0,18.221Z" style="fill:none;fill-rule:nonzero;stroke:black;stroke-width:0.16px;"/>
    </g>
    <g transform="matrix(4.166667,0,0,4.166667,779.99625,122.64911)">
        <path d="M0,-5.245L-1.134,-4.111L-1.134,-1.134L0,0L24.582,0L25.716,-1.134L25.716,-4.111L24.582,-5.245L0,-5.245Z" style="fill:rgb(132,27,33);fill-rule:nonzero;stroke:black;stroke-width:0.23px;"/>
    </g>
    <g transform="matrix(4.166667,0,0,4.166667,831.207917,8.628276)">
        <path d="M0,20.58C5.556,20.58 10.06,15.974 10.06,10.29C10.06,4.606 5.556,0 0,0C-5.556,0 -10.06,4.606 -10.06,10.29C-10.06,15.974 -5.556,20.58 0,20.58" style="fill:white;fill-rule:nonzero;"/>
    </g>
    <g transform="matrix(4.166667,0,0,4.166667,831.207917,8.628276)">
        <path d="M0,20.58C5.556,20.58 10.06,15.974 10.06,10.29C10.06,4.606 5.556,0 0,0C-5.556,0 -10.06,4.606 -10.06,10.29C-10.06,15.974 -5.556,20.58 0,20.58Z" style="fill:none;fill-rule:nonzero;stroke:black;stroke-width:0.63px;"/>
    </g>
    <g transform="matrix(4.166667,0,0,4.166667,831.207917,13.542026)">
        <path d="M0,18.221C4.921,18.221 8.91,14.142 8.91,9.111C8.91,4.079 4.921,0 0,0C-4.921,0 -8.91,4.079 -8.91,9.111C-8.91,14.142 -4.921,18.221 0,18.221" style="fill:white;fill-rule:nonzero;"/>
    </g>
    <g transform="matrix(4.166667,0,0,4.166667,831.207917,13.542026)">
        <path d="M0,18.221C4.921,18.221 8.91,14.142 8.91,9.111C8.91,4.079 4.921,0 0,0C-4.921,0 -8.91,4.079 -8.91,9.111C-8.91,14.142 -4.921,18.221 0,18.221Z" style="fill:none;fill-rule:nonzero;stroke:black;stroke-width:0.16px;"/>
    </g>
    <g transform="matrix(1,0,0,1,-293.396283,-77.619495)">
        <g transform="matrix(1,0,0,1,337.714,196.072)">
            <text x="0px" y="0px" style="font-family:'ArialMT', 'Arial', sans-serif;font-size:20.833px;fill:white;">VIGEUR</text>
        </g>
    </g>
    <g transform="matrix(1,0,0,1,-144.005866,-77.619495)">
        <g transform="matrix(1,0,0,1,337.709,197.072)">
            <text x="0px" y="0px" style="font-family:'ArialMT', 'Arial', sans-serif;font-size:20.833px;fill:white;">AGILITÉ</text>
        </g>
    </g>
    <g transform="matrix(1,0,0,1,5.384967,-74.67626)">
        <g transform="matrix(1,0,0,1,324.976,191.598)">
            <text x="0px" y="0px" style="font-family:'ArialMT', 'Arial', sans-serif;font-size:14.583px;fill:white;">INTELLIGENCE</text>
        </g>
    </g>
    <g transform="matrix(0.999999,-0.000119,-0.000119,0.972848,-116.067455,5.406809)">
        <path d="M457.104,183.3L457.338,236.738" style="fill:none;stroke:black;stroke-width:1.01px;stroke-linejoin:round;stroke-miterlimit:1.5;"/>
    </g>
    <g transform="matrix(1,0,0,0.972848,127.187015,5.352478)">
        <path d="M678.45,183.3L678.45,236.738" style="fill:none;stroke:black;stroke-width:1.01px;stroke-linejoin:round;stroke-miterlimit:1.5;"/>
    </g>
    <g transform="matrix(1,0,0,1,154.7758,-77.619495)">
        <g transform="matrix(1,0,0,1,348.711,196.072)">
            <text x="0px" y="0px" style="font-family:'ArialMT', 'Arial', sans-serif;font-size:20.833px;fill:white;">RUSE</text>
        </g>
    </g>
    <g transform="matrix(1,0,0,1,304.166217,-77.619495)">
        <g transform="matrix(1,0,0,1,327.872,197.072)">
            <text x="0px" y="0px" style="font-family:'ArialMT', 'Arial', sans-serif;font-size:20.833px;fill:white;">VOLONTÉ</text>
        </g>
    </g>
    <g transform="matrix(1,0,0,1,453.55705,-77.619495)">
        <g transform="matrix(1,0,0,1,326.075,196.58)">
            <text x="0px" y="0px" style="font-family:'ArialMT', 'Arial', sans-serif;font-size:18.75px;fill:white;">PRÉSENCE</text>
        </g>
    </g>
    <g transform="matrix(1,0,0,1,-277.54401,-16.412978)">
        <g transform="matrix(1,0,0,1,328.776,191.598)">
            <text x="0px" y="0px" style="font-family:'ArialMT', 'Arial', sans-serif;font-size:14.583px;fill:white;">ENCAISSEMENT</text>
        </g>
    </g>
    <g transform="matrix(1,0,0,1,-45.415325,-16.412978)">
        <g transform="matrix(1,0,0,1,342.54,191.598)">
            <text x="0px" y="0px" style="font-family:'ArialMT', 'Arial', sans-serif;font-size:14.583px;fill:white;">BLESSURES</text>
        </g>
    </g>
    <g transform="matrix(1,0,0,1,-45.415325,-16.412978)">
        <g transform="matrix(1,0,0,1,342.54,191.598)">
            <text x="0px" y="0px" style="font-family:'ArialMT', 'Arial', sans-serif;font-size:14.583px;fill:white;">BLESSURES</text>
        </g>
    </g>
    <g transform="matrix(1,0,0,1,418.975356,-16.412978)">
        <g transform="matrix(1,0,0,1,327.156,191.598)">
            <text x="0px" y="0px" style="font-family:'ArialMT', 'Arial', sans-serif;font-size:14.583px;fill:white;">DÉFENSE CAC/D</text>
        </g>
    </g>
    <g transform="matrix(4.166667,0,0,4.166667,508.789038,237.535776)">
        <path d="M0,-19.684L-4.35,-15.334L-4.35,-4.35L0,0L30.968,0L35.318,-4.35L35.318,-15.334L30.968,-19.684L0,-19.684Z" style="fill:white;fill-rule:nonzero;"/>
    </g>
    <g transform="matrix(4.166667,0,0,4.166667,507.941538,238.381193)">
        <path d="M0,-20.09L-4.434,-15.656L-4.434,-4.434L0,0L0.084,0.085L31.291,0.085L31.375,0L35.809,-4.434L35.809,-15.656L31.375,-20.09L31.291,-20.175L0.084,-20.175L0,-20.09Z" style="fill:none;fill-rule:nonzero;stroke:black;stroke-width:0.58px;"/>
    </g>
    <g transform="matrix(4.166667,0,0,4.166667,509.616538,235.53786)">
        <path d="M0,-18.725C-1.356,-17.369 -2.713,-16.012 -4.069,-14.657L-4.069,-4.069C-2.713,-2.713 -1.356,-1.357 0,0L30.571,0C31.927,-1.357 33.284,-2.713 34.64,-4.069L34.64,-14.657C33.284,-16.012 31.928,-17.369 30.571,-18.725L0,-18.725Z" style="fill:none;fill-rule:nonzero;stroke:black;stroke-width:0.19px;"/>
    </g>
    <g transform="matrix(4.166667,0,0,4.166667,510.353621,183.675776)">
        <path d="M0,-5.575L-2.835,-2.788L0,0L30.047,0L32.882,-2.788L30.047,-5.575L0,-5.575Z" style="fill:rgb(130,100,48);fill-rule:nonzero;stroke:rgb(35,31,32);stroke-width:0.23px;stroke-linejoin:round;stroke-miterlimit:2;"/>
    </g>
    <g transform="matrix(0.999999,-0.000119,-0.000119,0.972848,115.991499,5.406809)">
        <path d="M457.104,183.3L457.338,236.738" style="fill:none;stroke:black;stroke-width:1.01px;stroke-linejoin:round;stroke-miterlimit:1.5;"/>
    </g>
    <g transform="matrix(1,0,0,1,186.64363,-16.412978)">
        <g transform="matrix(1,0,0,1,357.134,191.598)">
            <text x="0px" y="0px" style="font-family:'ArialMT', 'Arial', sans-serif;font-size:14.583px;fill:white;">STRESS</text>
        </g>
    </g>
</svg>
