<?xml version="1.0" encoding="UTF-8" standalone="no"?>
<!DOCTYPE svg PUBLIC "-//W3C//DTD SVG 1.1//EN" "http://www.w3.org/Graphics/SVG/1.1/DTD/svg11.dtd">
<svg width="100%" height="100%" viewBox="0 0 870 211" version="1.1" xmlns="http://www.w3.org/2000/svg" xmlns:xlink="http://www.w3.org/1999/xlink" xml:space="preserve" xmlns:serif="http://www.serif.com/" style="fill-rule:evenodd;clip-rule:evenodd;stroke-linejoin:round;stroke-miterlimit:2;">
    <g transform="matrix(4.166667,0,0,4.166667,1199.584497,920.036784)">
        <g transform="matrix(0.888898,0,0,1.034192,-337.237251,-1978.390953)">
            <path d="M284.126,1714.489L284.126,1732.937L275.029,1740.756L65.438,1740.756L63.496,1739.087L63.496,1712.234L281.502,1712.234L284.126,1714.489Z" style="fill:rgb(169,160,155);stroke:black;stroke-width:0.3px;"/>
        </g>
        <g transform="matrix(0.698921,0,0,1.011406,-46.75015,27.772348)">
            <g transform="matrix(0.242569,0,0,0.24,-289.733803,-220.810639)">
                <path d="M678.779,28.244L678.779,80.953L654.225,98.103L459.554,98.103L435,80.953L435,28.244L459.554,11.095L654.225,11.095L678.779,28.244Z" style="fill:white;stroke:black;stroke-width:1.67px;stroke-linecap:round;stroke-miterlimit:1.5;"/>
            </g>
            <g transform="matrix(0.235113,0,0,0.227537,-285.597527,-220.130179)">
                <path d="M678.779,28.244L678.779,80.953L654.762,98.103L459.017,98.103L435,80.953L435,28.244L459.017,11.095L654.762,11.095L678.779,28.244Z" style="fill:white;stroke:black;stroke-width:1.17px;stroke-linecap:round;stroke-miterlimit:1.5;"/>
            </g>
        </g>
        <g transform="matrix(0.698921,0,0,1.011406,5.702018,27.772348)">
            <g transform="matrix(0.242298,0,0,0.24,-289.583241,-220.810639)">
                <path d="M678.779,28.244L678.779,80.953L654.198,98.103L459.581,98.103L435,80.953L435,28.244L459.581,11.095L654.198,11.095L678.779,28.244Z" style="fill:white;stroke:black;stroke-width:1.67px;stroke-linecap:round;stroke-miterlimit:1.5;"/>
            </g>
            <g transform="matrix(0.235113,0,0,0.227537,-285.597527,-220.130179)">
                <path d="M678.779,28.244L678.779,80.953L654.762,98.103L459.017,98.103L435,80.953L435,28.244L459.017,11.095L654.762,11.095L678.779,28.244Z" style="fill:white;stroke:black;stroke-width:1.17px;stroke-linecap:round;stroke-miterlimit:1.5;"/>
            </g>
        </g>
        <g transform="matrix(0.698921,0,0,1.011406,5.702018,4.027171)">
            <g transform="matrix(0.242298,0,0,0.24,-289.583241,-220.810639)">
                <path d="M678.779,28.244L678.779,80.953L654.198,98.103L459.581,98.103L435,80.953L435,28.244L459.581,11.095L654.198,11.095L678.779,28.244Z" style="fill:white;stroke:black;stroke-width:1.67px;stroke-linecap:round;stroke-miterlimit:1.5;"/>
            </g>
            <g transform="matrix(0.235113,0,0,0.227537,-285.597527,-220.130179)">
                <path d="M678.779,28.244L678.779,80.953L654.762,98.103L459.017,98.103L435,80.953L435,28.244L459.017,11.095L654.762,11.095L678.779,28.244Z" style="fill:white;stroke:black;stroke-width:1.17px;stroke-linecap:round;stroke-miterlimit:1.5;"/>
            </g>
        </g>
        <g>
            <g transform="matrix(1,0,0,1,-74.746319,-9238.487306)">
                <path d="M-183.225,9029.721L-183.225,9031.435L-185.013,9033.223L-210.375,9033.223L-212.163,9031.435L-212.163,9029.721L-210.375,9027.933L-185.013,9027.933L-183.225,9029.721Z" style="fill:rgb(61,52,48);stroke:black;stroke-width:0.23px;stroke-linejoin:miter;stroke-miterlimit:4;"/>
            </g>
            <g transform="matrix(1,0,0,1,-74.746319,-9221.861165)">
                <path d="M-183.225,9030.341L-183.225,9039.844L-185.013,9041.632L-210.375,9041.632L-212.163,9039.844L-212.163,9030.341L-210.375,9028.553L-185.013,9028.553L-183.225,9030.341Z" style="fill:rgb(61,52,48);stroke:black;stroke-width:0.23px;stroke-linejoin:miter;stroke-miterlimit:4;"/>
            </g>
            <g transform="matrix(1,0,0,1,-74.746319,-9227.403212)">
                <path d="M-183.225,9030.134L-183.225,9031.849L-185.013,9033.636L-210.375,9033.636L-212.163,9031.849L-212.163,9030.134L-210.375,9028.347L-185.013,9028.347L-183.225,9030.134Z" style="fill:rgb(61,52,48);stroke:black;stroke-width:0.23px;stroke-linejoin:miter;stroke-miterlimit:4;"/>
            </g>
            <g transform="matrix(1,0,0,1,-74.746319,-9232.945259)">
                <path d="M-183.225,9029.928L-183.225,9031.642L-185.013,9033.43L-210.375,9033.43L-212.163,9031.642L-212.163,9029.928L-210.375,9028.14L-185.013,9028.14L-183.225,9029.928Z" style="fill:rgb(61,52,48);stroke:black;stroke-width:0.23px;stroke-linejoin:miter;stroke-miterlimit:4;"/>
            </g>
            <g transform="matrix(1,0,0,1,-39.414633,-9238.487306)">
                <path d="M-182.703,9029.721L-182.703,9031.435L-184.49,9033.223L-209.853,9033.223L-211.641,9031.435L-211.641,9029.721L-209.853,9027.933L-184.49,9027.933L-182.703,9029.721Z" style="fill:rgb(61,52,48);stroke:black;stroke-width:0.23px;stroke-linejoin:miter;stroke-miterlimit:4;"/>
            </g>
            <g transform="matrix(1,0,0,1,-39.414633,-9221.861165)">
                <path d="M-182.703,9030.341L-182.703,9039.844L-184.49,9041.632L-209.853,9041.632L-211.641,9039.844L-211.641,9030.341L-209.853,9028.553L-184.49,9028.553L-182.703,9030.341Z" style="fill:rgb(61,52,48);stroke:black;stroke-width:0.23px;stroke-linejoin:miter;stroke-miterlimit:4;"/>
            </g>
            <g transform="matrix(1,0,0,1,-39.414633,-9227.403212)">
                <path d="M-182.703,9030.134L-182.703,9031.849L-184.49,9033.636L-209.853,9033.636L-211.641,9031.849L-211.641,9030.134L-209.853,9028.347L-184.49,9028.347L-182.703,9030.134Z" style="fill:rgb(61,52,48);stroke:black;stroke-width:0.23px;stroke-linejoin:miter;stroke-miterlimit:4;"/>
            </g>
            <g transform="matrix(1,0,0,1,-39.414633,-9232.945259)">
                <path d="M-182.703,9029.928L-182.703,9031.642L-184.49,9033.43L-209.853,9033.43L-211.641,9031.642L-211.641,9029.928L-209.853,9028.14L-184.49,9028.14L-182.703,9029.928Z" style="fill:rgb(61,52,48);stroke:black;stroke-width:0.23px;stroke-linejoin:miter;stroke-miterlimit:4;"/>
            </g>
            <g transform="matrix(1,0,0,1,-4.082948,-9238.487306)">
                <path d="M-182.181,9029.721L-182.181,9031.435L-183.968,9033.223L-209.331,9033.223L-211.118,9031.435L-211.118,9029.721L-209.331,9027.933L-183.968,9027.933L-182.181,9029.721Z" style="fill:rgb(61,52,48);stroke:black;stroke-width:0.23px;stroke-linejoin:miter;stroke-miterlimit:4;"/>
            </g>
            <g transform="matrix(1,0,0,1,-4.082948,-9221.861165)">
                <path d="M-182.181,9030.341L-182.181,9039.844L-183.968,9041.632L-209.331,9041.632L-211.118,9039.844L-211.118,9030.341L-209.331,9028.553L-183.968,9028.553L-182.181,9030.341Z" style="fill:rgb(61,52,48);stroke:black;stroke-width:0.23px;stroke-linejoin:miter;stroke-miterlimit:4;"/>
            </g>
            <g transform="matrix(1,0,0,1,-4.082948,-9227.403212)">
                <path d="M-182.181,9030.134L-182.181,9031.849L-183.968,9033.636L-209.331,9033.636L-211.118,9031.849L-211.118,9030.134L-209.331,9028.347L-183.968,9028.347L-182.181,9030.134Z" style="fill:rgb(61,52,48);stroke:black;stroke-width:0.23px;stroke-linejoin:miter;stroke-miterlimit:4;"/>
            </g>
            <g transform="matrix(1,0,0,1,-4.082948,-9232.945259)">
                <path d="M-182.181,9029.928L-182.181,9031.642L-183.968,9033.43L-209.331,9033.43L-211.118,9031.642L-211.118,9029.928L-209.331,9028.14L-183.968,9028.14L-182.181,9029.928Z" style="fill:rgb(61,52,48);stroke:black;stroke-width:0.23px;stroke-linejoin:miter;stroke-miterlimit:4;"/>
            </g>
        </g>
        <g transform="matrix(1,0,0,1,-74.791012,-9215.716992)">
            <path d="M-184.224,9030.24L-184.224,9033.218L-185.358,9034.352L-209.94,9034.352L-211.074,9033.218L-211.074,9030.24L-209.94,9029.106L-185.358,9029.106L-184.224,9030.24Z" style="fill:rgb(65,130,189);stroke:rgb(65,130,189);stroke-width:0.32px;stroke-linejoin:miter;stroke-miterlimit:4;"/>
        </g>
        <g transform="matrix(1,0,0,1,-39.459327,-9215.716992)">
            <path d="M-183.702,9030.24L-183.702,9033.218L-184.836,9034.352L-209.418,9034.352L-210.552,9033.218L-210.552,9030.24L-209.418,9029.106L-184.836,9029.106L-183.702,9030.24Z" style="fill:rgb(65,130,189);stroke:rgb(65,130,189);stroke-width:0.32px;stroke-linejoin:miter;stroke-miterlimit:4;"/>
        </g>
        <g transform="matrix(1,0,0,1,-4.127642,-9215.716992)">
            <path d="M-183.18,9030.24L-183.18,9033.218L-184.314,9034.352L-208.896,9034.352L-210.03,9033.218L-210.03,9030.24L-208.896,9029.106L-184.314,9029.106L-183.18,9030.24Z" style="fill:rgb(65,130,189);stroke:rgb(65,130,189);stroke-width:0.32px;stroke-linejoin:miter;stroke-miterlimit:4;"/>
        </g>
        <g transform="matrix(1,0,0,1,19.327139,0.529227)">
            <g transform="matrix(0.350237,0,0,0.350237,-334.325079,-207.937793)">
                <path d="M354.122,7.809L354.122,46.423L345.559,54.986L306.945,54.986L298.382,46.423L298.382,7.809L306.945,-0.754L345.559,-0.754L354.122,7.809Z" style="fill:white;stroke:black;stroke-width:1px;stroke-miterlimit:1.5;"/>
            </g>
            <g transform="matrix(0.319699,0,0,0.319699,-324.361869,-207.109722)">
                <path d="M354.122,7.647L354.122,46.584L345.72,54.986L306.783,54.986L298.382,46.584L298.382,7.647L306.783,-0.754L345.72,-0.754L354.122,7.647Z" style="fill:white;stroke:black;stroke-width:0.73px;stroke-miterlimit:1.5;"/>
            </g>
        </g>
        <g transform="matrix(1,0,0,1,19.327139,0.529227)">
            <g transform="matrix(0.350237,0,0,0.350237,-334.325079,-207.937793)">
                <path d="M354.122,7.809L354.122,46.423L345.559,54.986L306.945,54.986L298.382,46.423L298.382,7.809L306.945,-0.754L345.559,-0.754L354.122,7.809Z" style="fill:white;stroke:black;stroke-width:1px;stroke-miterlimit:1.5;"/>
            </g>
            <g transform="matrix(0.319699,0,0,0.319699,-324.361869,-207.109722)">
                <path d="M354.122,7.647L354.122,46.584L345.72,54.986L306.783,54.986L298.382,46.584L298.382,7.647L306.783,-0.754L345.72,-0.754L354.122,7.647Z" style="fill:white;stroke:black;stroke-width:0.73px;stroke-miterlimit:1.5;"/>
            </g>
        </g>
        <g transform="matrix(1,0,0,1,-16.527046,0.529227)">
            <g transform="matrix(0.350237,0,0,0.350237,-334.325079,-207.937793)">
                <path d="M354.122,7.809L354.122,46.423L345.559,54.986L306.945,54.986L298.382,46.423L298.382,7.809L306.945,-0.754L345.559,-0.754L354.122,7.809Z" style="fill:white;stroke:black;stroke-width:1px;stroke-miterlimit:1.5;"/>
            </g>
            <g transform="matrix(0.319699,0,0,0.319699,-324.361869,-207.109722)">
                <path d="M354.122,7.647L354.122,46.584L345.72,54.986L306.783,54.986L298.382,46.584L298.382,7.647L306.783,-0.754L345.72,-0.754L354.122,7.647Z" style="fill:white;stroke:black;stroke-width:0.73px;stroke-miterlimit:1.5;"/>
            </g>
        </g>
        <g transform="matrix(1,0,0,1,19.327139,0.529227)">
            <g transform="matrix(0.350237,0,0,0.350237,-334.325079,-207.937793)">
                <path d="M354.122,7.809L354.122,46.423L345.559,54.986L306.945,54.986L298.382,46.423L298.382,7.809L306.945,-0.754L345.559,-0.754L354.122,7.809Z" style="fill:white;stroke:black;stroke-width:1px;stroke-miterlimit:1.5;"/>
            </g>
            <g transform="matrix(0.319699,0,0,0.319699,-324.361869,-207.109722)">
                <path d="M354.122,7.647L354.122,46.584L345.72,54.986L306.783,54.986L298.382,46.584L298.382,7.647L306.783,-0.754L345.72,-0.754L354.122,7.647Z" style="fill:white;stroke:black;stroke-width:0.73px;stroke-miterlimit:1.5;"/>
            </g>
        </g>
        <g transform="matrix(1,0,0,1,-52.380732,0.529227)">
            <g transform="matrix(0.350237,0,0,0.350237,-334.325079,-207.937793)">
                <path d="M354.122,7.809L354.122,46.423L345.559,54.986L306.945,54.986L298.382,46.423L298.382,7.809L306.945,-0.754L345.559,-0.754L354.122,7.809Z" style="fill:white;stroke:black;stroke-width:1px;stroke-miterlimit:1.5;"/>
            </g>
            <g transform="matrix(0.319699,0,0,0.319699,-324.361869,-207.109722)">
                <path d="M354.122,7.647L354.122,46.584L345.72,54.986L306.783,54.986L298.382,46.584L298.382,7.647L306.783,-0.754L345.72,-0.754L354.122,7.647Z" style="fill:white;stroke:black;stroke-width:0.73px;stroke-miterlimit:1.5;"/>
            </g>
        </g>
        <g transform="matrix(0.24,0,0,0.24,-210.904686,-185.564862)">
            <g transform="matrix(1,0,0,1,-9.48,11.647)">
                <text x="0px" y="0px" style="font-family:'ArialMT', 'Arial', sans-serif;font-size:16.667px;fill:white;">MANIABILITÉ</text>
            </g>
        </g>
        <g transform="matrix(0.24,0,0,0.24,-246.758439,-185.564862)">
            <g transform="matrix(1,0,0,1,7.187,11.647)">
                <text x="0px" y="0px" style="font-family:'ArialMT', 'Arial', sans-serif;font-size:16.667px;fill:white;">VITESSE</text>
            </g>
        </g>
        <g transform="matrix(0.24,0,0,0.24,-282.612191,-185.564862)">
            <g transform="matrix(1,0,0,1,5.804,11.647)">
                <text x="0px" y="0px" style="font-family:'ArialMT', 'Arial', sans-serif;font-size:16.667px;fill:white;">GABARIT</text>
            </g>
        </g>
        <g transform="matrix(1,0,0,1,0,1.65813)">
            <g transform="matrix(0.24,0,0,0.24,-288.286881,-220.810639)">
                <path d="M678.779,28.244L678.779,80.953L661.63,98.103L452.149,98.103L435,80.953L435,28.244L452.149,11.095L661.63,11.095L678.779,28.244Z" style="fill:white;stroke:black;stroke-width:1.46px;stroke-linecap:round;stroke-miterlimit:1.5;"/>
            </g>
            <g transform="matrix(0.235113,0,0,0.227537,-285.597527,-220.130179)">
                <path d="M678.779,28.244L678.779,80.953L662.182,98.103L451.597,98.103L435,80.953L435,28.244L451.597,11.095L662.182,11.095L678.779,28.244Z" style="fill:white;stroke:black;stroke-width:1.01px;stroke-linecap:round;stroke-miterlimit:1.5;"/>
            </g>
        </g>
        <g transform="matrix(0.254194,0,0,0.270551,-294.901708,-221.368107)">
            <path d="M493.281,93.21L493.281,42.137" style="fill:none;stroke:black;stroke-width:1px;stroke-miterlimit:1.5;"/>
        </g>
        <g transform="matrix(0.254194,0,0,0.270551,-280.010542,-221.368107)">
            <path d="M493.281,93.21L493.281,42.137" style="fill:none;stroke:black;stroke-width:1px;stroke-miterlimit:1.5;"/>
        </g>
        <g transform="matrix(0.254194,0,0,0.270551,-265.089301,-221.368107)">
            <path d="M493.281,93.21L493.281,42.137" style="fill:none;stroke:black;stroke-width:1px;stroke-miterlimit:1.5;"/>
        </g>
        <g transform="matrix(1.572455,0,0,0.999825,212.762836,-11198.497345)">
            <g transform="matrix(0.969758,0,0,1,-7.163284,0)">
                <path d="M-215.68,10987.67L-217.453,10990.458L-249.624,10990.458L-251.397,10987.67L-249.624,10984.882L-217.453,10984.882L-215.68,10987.67Z" style="fill:rgb(5,37,74);"/>
            </g>
            <g transform="matrix(0.152601,0,0,0.24,-213.491224,8348.510698)">
                <g>
                    <g transform="matrix(1,0,0,1,-237.692,11003.209)">
                        <text x="0px" y="0px" style="font-family:'Arial-ItalicMT', 'Arial', sans-serif;font-style:italic;font-size:18.75px;fill:white;">DÉF</text>
                    </g>
                    <g transform="matrix(1,0,0,1,-191.797537,11003.209)">
                        <text x="0px" y="0px" style="font-family:'Arial-ItalicMT', 'Arial', sans-serif;font-style:italic;font-size:18.75px;fill:white;">A<tspan x="5.548px 10.757px 23.62px 28.83px " y="0px 0px 0px 0px "> V./</tspan>BAB./TRI./</text>
                    </g>
                    <g transform="matrix(1,0,0,1,-69.94,11003.209)">
                        <text x="0px" y="0px" style="font-family:'Arial-ItalicMT', 'Arial', sans-serif;font-style:italic;font-size:18.75px;fill:white;">ARR.</text>
                    </g>
                </g>
            </g>
        </g>
        <g transform="matrix(1.046949,0,0,1.046949,89.661975,-11692.530746)">
            <path d="M-215.68,10987.67L-218.468,10990.458L-248.609,10990.458L-251.397,10987.67L-248.609,10984.882L-218.468,10984.882L-215.68,10987.67Z" style="fill:rgb(5,37,74);"/>
            <g transform="matrix(0.24,0,0,0.24,-191.061536,8348.510698)">
                <g>
                    <g transform="matrix(1,0,0,1,-219.977,11003.656)">
                        <text x="0px" y="0px" style="font-family:'Arial-ItalicMT', 'Arial', sans-serif;font-style:italic;font-size:20px;fill:white;">SEUIL</text>
                    </g>
                    <g transform="matrix(1,0,0,1,-162.536,11003.656)">
                        <text x="4.557px" y="0px" style="font-family:'Arial-ItalicMT', 'Arial', sans-serif;font-style:italic;font-size:20px;fill:white;"><tspan x="4.557px 9.114px 13.67px 18.227px " y="0px 0px 0px 0px ">D  C</tspan></text>
                    </g>
                </g>
            </g>
        </g>
        <g transform="matrix(1.051391,0,0,1.051391,143.165786,-11741.324709)">
            <path d="M-215.68,10987.67L-218.468,10990.458L-248.609,10990.458L-251.397,10987.67L-248.609,10984.882L-218.468,10984.882L-215.68,10987.67Z" style="fill:rgb(5,37,74);"/>
            <g transform="matrix(0.24,0,0,0.24,-191.061536,8348.510698)">
                <g>
                    <g transform="matrix(1,0,0,1,-220.534,11003.656)">
                        <text x="0px" y="0px" style="font-family:'Arial-ItalicMT', 'Arial', sans-serif;font-style:italic;font-size:20px;fill:white;">SEUIL</text>
                    </g>
                    <g transform="matrix(1,0,0,1,-154.092001,11003.656)">
                        <text x="0px" y="0px" style="font-family:'Arial-ItalicMT', 'Arial', sans-serif;font-style:italic;font-size:20px;fill:white;">S<tspan x="5.556px 10.113px 14.669px " y="0px 0px 0px ">  M</tspan></text>
                    </g>
                </g>
            </g>
        </g>
        <g transform="matrix(1.051391,0,0,1.051391,143.165786,-11765.07814)">
            <path d="M-215.68,10987.67L-218.468,10990.458L-248.609,10990.458L-251.397,10987.67L-248.609,10984.882L-218.468,10984.882L-215.68,10987.67Z" style="fill:rgb(5,37,74);"/>
            <g transform="matrix(0.24,0,0,0.24,-191.061536,8348.510698)">
                <g transform="matrix(1,0,0,1,-224.606,11003.656)">
                    <text x="0px" y="0px" style="font-family:'Arial-ItalicMT', 'Arial', sans-serif;font-style:italic;font-size:20px;fill:white;">BLINDAGE</text>
                </g>
            </g>
        </g>
    </g>
</svg>
