<?xml version="1.0" encoding="UTF-8" standalone="no"?>
<!DOCTYPE svg PUBLIC "-//W3C//DTD SVG 1.1//EN" "http://www.w3.org/Graphics/SVG/1.1/DTD/svg11.dtd">
<svg width="100%" height="100%" viewBox="0 0 919 133" version="1.1" xmlns="http://www.w3.org/2000/svg" xmlns:xlink="http://www.w3.org/1999/xlink" xml:space="preserve" xmlns:serif="http://www.serif.com/" style="fill-rule:evenodd;clip-rule:evenodd;stroke-linejoin:round;stroke-miterlimit:2;">
    <g transform="matrix(4.154847,0,0,4.145027,36.298717,131.51564)">
        <path d="M0,-28.522L-8.504,-20.018L-8.504,-2.835L-5.669,0L209.291,0L212.126,-2.835L212.126,-20.018L203.622,-28.522L0,-28.522Z" style="fill:rgb(193,143,86);fill-rule:nonzero;stroke:black;stroke-width:0.35px;"/>
    </g>
    <g transform="matrix(4.166667,0,0,4.166667,30.272918,23.068278)">
        <g>
            <path d="M0,-5.289L-1.788,-3.502L-1.788,-1.788L0,0L25.362,0L27.15,-1.788L27.15,-3.502L25.362,-5.289L0,-5.289Z" style="fill:rgb(51,68,85);fill-rule:nonzero;stroke:rgb(35,31,32);stroke-width:0.24px;stroke-linejoin:miter;stroke-miterlimit:4;"/>
            <g transform="matrix(1,0,0,1,0,25.035098)">
                <path d="M0,-13.078L-1.788,-11.291L-1.788,-1.788L0,0L25.362,0L27.15,-1.788L27.15,-11.291L25.362,-13.078L0,-13.078Z" style="fill:rgb(51,68,85);fill-rule:nonzero;stroke:rgb(35,31,32);stroke-width:0.24px;stroke-linejoin:miter;stroke-miterlimit:4;"/>
            </g>
            <g transform="matrix(1,0,0,1,0,11.498099)">
                <path d="M0,-5.29L-1.788,-3.502L-1.788,-1.788L0,0L25.362,0L27.15,-1.788L27.15,-3.502L25.362,-5.29L0,-5.29Z" style="fill:rgb(51,68,85);fill-rule:nonzero;stroke:rgb(35,31,32);stroke-width:0.24px;stroke-linejoin:miter;stroke-miterlimit:4;"/>
            </g>
            <g transform="matrix(1,0,0,1,0,5.7491)">
                <path d="M0,-5.29L-1.788,-3.502L-1.788,-1.788L0,0L25.362,0L27.15,-1.788L27.15,-3.502L25.362,-5.29L0,-5.29Z" style="fill:rgb(51,68,85);fill-rule:nonzero;stroke:rgb(35,31,32);stroke-width:0.24px;stroke-linejoin:miter;stroke-miterlimit:4;"/>
            </g>
            <g transform="matrix(1,0,0,1,35.853897,0)">
                <path d="M0,-5.289L-1.788,-3.502L-1.788,-1.788L0,0L25.362,0L27.15,-1.788L27.15,-3.502L25.362,-5.289L0,-5.289Z" style="fill:rgb(51,68,85);fill-rule:nonzero;stroke:rgb(35,31,32);stroke-width:0.24px;stroke-linejoin:miter;stroke-miterlimit:4;"/>
            </g>
            <g transform="matrix(1,0,0,1,35.853897,25.035098)">
                <path d="M0,-13.078L-1.788,-11.291L-1.788,-1.788L0,0L25.362,0L27.15,-1.788L27.15,-11.291L25.362,-13.078L0,-13.078Z" style="fill:rgb(51,68,85);fill-rule:nonzero;stroke:rgb(35,31,32);stroke-width:0.24px;stroke-linejoin:miter;stroke-miterlimit:4;"/>
            </g>
            <g transform="matrix(1,0,0,1,35.853897,11.498099)">
                <path d="M0,-5.29L-1.788,-3.502L-1.788,-1.788L0,0L25.362,0L27.15,-1.788L27.15,-3.502L25.362,-5.29L0,-5.29Z" style="fill:rgb(51,68,85);fill-rule:nonzero;stroke:rgb(35,31,32);stroke-width:0.24px;stroke-linejoin:miter;stroke-miterlimit:4;"/>
            </g>
            <g transform="matrix(1,0,0,1,35.853897,5.7491)">
                <path d="M0,-5.29L-1.788,-3.502L-1.788,-1.788L0,0L25.362,0L27.15,-1.788L27.15,-3.502L25.362,-5.29L0,-5.29Z" style="fill:rgb(51,68,85);fill-rule:nonzero;stroke:rgb(35,31,32);stroke-width:0.24px;stroke-linejoin:miter;stroke-miterlimit:4;"/>
            </g>
            <g transform="matrix(1,0,0,1,71.707594,0)">
                <path d="M0,-5.289L-1.788,-3.502L-1.788,-1.788L0,0L25.362,0L27.15,-1.788L27.15,-3.502L25.362,-5.289L0,-5.289Z" style="fill:rgb(51,68,85);fill-rule:nonzero;stroke:rgb(35,31,32);stroke-width:0.24px;stroke-linejoin:miter;stroke-miterlimit:4;"/>
            </g>
            <g transform="matrix(1,0,0,1,71.707594,25.035098)">
                <path d="M0,-13.078L-1.788,-11.291L-1.788,-1.788L0,0L25.362,0L27.15,-1.788L27.15,-11.291L25.362,-13.078L0,-13.078Z" style="fill:rgb(51,68,85);fill-rule:nonzero;stroke:rgb(35,31,32);stroke-width:0.24px;stroke-linejoin:miter;stroke-miterlimit:4;"/>
            </g>
            <g transform="matrix(1,0,0,1,71.707594,11.498099)">
                <path d="M0,-5.29L-1.788,-3.502L-1.788,-1.788L0,0L25.362,0L27.15,-1.788L27.15,-3.502L25.362,-5.29L0,-5.29Z" style="fill:rgb(51,68,85);fill-rule:nonzero;stroke:rgb(35,31,32);stroke-width:0.24px;stroke-linejoin:miter;stroke-miterlimit:4;"/>
            </g>
            <g transform="matrix(1,0,0,1,71.707594,5.7491)">
                <path d="M0,-5.29L-1.788,-3.502L-1.788,-1.788L0,0L25.362,0L27.15,-1.788L27.15,-3.502L25.362,-5.29L0,-5.29Z" style="fill:rgb(51,68,85);fill-rule:nonzero;stroke:rgb(35,31,32);stroke-width:0.24px;stroke-linejoin:miter;stroke-miterlimit:4;"/>
            </g>
            <g transform="matrix(1,0,0,1,107.561291,0)">
                <path d="M0,-5.289L-1.788,-3.502L-1.788,-1.788L0,0L25.362,0L27.15,-1.788L27.15,-3.502L25.362,-5.289L0,-5.289Z" style="fill:rgb(51,68,85);fill-rule:nonzero;stroke:rgb(35,31,32);stroke-width:0.24px;stroke-linejoin:miter;stroke-miterlimit:4;"/>
            </g>
            <g transform="matrix(1,0,0,1,107.561291,25.035098)">
                <path d="M0,-13.078L-1.788,-11.291L-1.788,-1.788L0,0L25.362,0L27.15,-1.788L27.15,-11.291L25.362,-13.078L0,-13.078Z" style="fill:rgb(51,68,85);fill-rule:nonzero;stroke:rgb(35,31,32);stroke-width:0.24px;stroke-linejoin:miter;stroke-miterlimit:4;"/>
            </g>
            <g transform="matrix(1,0,0,1,107.561291,11.498099)">
                <path d="M0,-5.29L-1.788,-3.502L-1.788,-1.788L0,0L25.362,0L27.15,-1.788L27.15,-3.502L25.362,-5.29L0,-5.29Z" style="fill:rgb(51,68,85);fill-rule:nonzero;stroke:rgb(35,31,32);stroke-width:0.24px;stroke-linejoin:miter;stroke-miterlimit:4;"/>
            </g>
            <g transform="matrix(1,0,0,1,107.561291,5.7491)">
                <path d="M0,-5.29L-1.788,-3.502L-1.788,-1.788L0,0L25.362,0L27.15,-1.788L27.15,-3.502L25.362,-5.29L0,-5.29Z" style="fill:rgb(51,68,85);fill-rule:nonzero;stroke:rgb(35,31,32);stroke-width:0.24px;stroke-linejoin:miter;stroke-miterlimit:4;"/>
            </g>
            <g transform="matrix(1,0,0,1,143.415089,0)">
                <path d="M0,-5.289L-1.788,-3.502L-1.788,-1.788L0,0L25.362,0L27.15,-1.788L27.15,-3.502L25.362,-5.289L0,-5.289Z" style="fill:rgb(51,68,85);fill-rule:nonzero;stroke:rgb(35,31,32);stroke-width:0.24px;stroke-linejoin:miter;stroke-miterlimit:4;"/>
            </g>
            <g transform="matrix(1,0,0,1,143.415089,25.035098)">
                <path d="M0,-13.078L-1.788,-11.291L-1.788,-1.788L0,0L25.362,0L27.15,-1.788L27.15,-11.291L25.362,-13.078L0,-13.078Z" style="fill:rgb(51,68,85);fill-rule:nonzero;stroke:rgb(35,31,32);stroke-width:0.24px;stroke-linejoin:miter;stroke-miterlimit:4;"/>
            </g>
            <g transform="matrix(1,0,0,1,143.415089,11.498099)">
                <path d="M0,-5.29L-1.788,-3.502L-1.788,-1.788L0,0L25.362,0L27.15,-1.788L27.15,-3.502L25.362,-5.29L0,-5.29Z" style="fill:rgb(51,68,85);fill-rule:nonzero;stroke:rgb(35,31,32);stroke-width:0.24px;stroke-linejoin:miter;stroke-miterlimit:4;"/>
            </g>
            <g transform="matrix(1,0,0,1,143.415089,5.7491)">
                <path d="M0,-5.29L-1.788,-3.502L-1.788,-1.788L0,0L25.362,0L27.15,-1.788L27.15,-3.502L25.362,-5.29L0,-5.29Z" style="fill:rgb(51,68,85);fill-rule:nonzero;stroke:rgb(35,31,32);stroke-width:0.24px;stroke-linejoin:miter;stroke-miterlimit:4;"/>
            </g>
            <g transform="matrix(1,0,0,1,179.268786,0)">
                <path d="M0,-5.289L-1.788,-3.502L-1.788,-1.788L0,0L25.362,0L27.15,-1.788L27.15,-3.502L25.362,-5.289L0,-5.289Z" style="fill:rgb(51,68,85);fill-rule:nonzero;stroke:rgb(35,31,32);stroke-width:0.24px;stroke-linejoin:miter;stroke-miterlimit:4;"/>
            </g>
            <g transform="matrix(1,0,0,1,179.268786,25.035098)">
                <path d="M0,-13.078L-1.788,-11.291L-1.788,-1.788L0,0L25.362,0L27.15,-1.788L27.15,-11.291L25.362,-13.078L0,-13.078Z" style="fill:rgb(51,68,85);fill-rule:nonzero;stroke:rgb(35,31,32);stroke-width:0.24px;stroke-linejoin:miter;stroke-miterlimit:4;"/>
            </g>
            <g transform="matrix(1,0,0,1,179.268786,11.498099)">
                <path d="M0,-5.29L-1.788,-3.502L-1.788,-1.788L0,0L25.362,0L27.15,-1.788L27.15,-3.502L25.362,-5.29L0,-5.29Z" style="fill:rgb(51,68,85);fill-rule:nonzero;stroke:rgb(35,31,32);stroke-width:0.24px;stroke-linejoin:miter;stroke-miterlimit:4;"/>
            </g>
            <g transform="matrix(1,0,0,1,179.268786,5.7491)">
                <path d="M0,-5.29L-1.788,-3.502L-1.788,-1.788L0,0L25.362,0L27.15,-1.788L27.15,-3.502L25.362,-5.29L0,-5.29Z" style="fill:rgb(51,68,85);fill-rule:nonzero;stroke:rgb(35,31,32);stroke-width:0.24px;stroke-linejoin:miter;stroke-miterlimit:4;"/>
            </g>
        </g>
    </g>
    <g transform="matrix(4.166667,0,0,4.166667,31.899585,122.649112)">
        <g>
            <path d="M0,-5.245L-1.134,-4.111L-1.134,-1.134L0,0L24.582,0L25.716,-1.134L25.716,-4.111L24.582,-5.245L0,-5.245Z" style="fill:rgb(140,170,164);fill-rule:nonzero;stroke:black;stroke-width:0.32px;stroke-linejoin:miter;stroke-miterlimit:4;"/>
            <g transform="matrix(1,0,0,1,35.853697,0)">
                <path d="M0,-5.245L-1.134,-4.111L-1.134,-1.134L0,0L24.582,0L25.716,-1.134L25.716,-4.111L24.582,-5.245L0,-5.245Z" style="fill:rgb(140,170,164);fill-rule:nonzero;stroke:black;stroke-width:0.32px;stroke-linejoin:miter;stroke-miterlimit:4;"/>
            </g>
            <g transform="matrix(1,0,0,1,71.707494,0)">
                <path d="M0,-5.245L-1.134,-4.111L-1.134,-1.134L0,0L24.582,0L25.716,-1.134L25.716,-4.111L24.582,-5.245L0,-5.245Z" style="fill:rgb(140,170,164);fill-rule:nonzero;stroke:black;stroke-width:0.32px;stroke-linejoin:miter;stroke-miterlimit:4;"/>
            </g>
            <g transform="matrix(1,0,0,1,107.561291,0)">
                <path d="M0,-5.245L-1.134,-4.111L-1.134,-1.134L0,0L24.582,0L25.716,-1.134L25.716,-4.111L24.582,-5.245L0,-5.245Z" style="fill:rgb(140,170,164);fill-rule:nonzero;stroke:black;stroke-width:0.32px;stroke-linejoin:miter;stroke-miterlimit:4;"/>
            </g>
            <g transform="matrix(1,0,0,1,143.414989,0)">
                <path d="M0,-5.245L-1.134,-4.111L-1.134,-1.134L0,0L24.582,0L25.716,-1.134L25.716,-4.111L24.582,-5.245L0,-5.245Z" style="fill:rgb(140,170,164);fill-rule:nonzero;stroke:black;stroke-width:0.32px;stroke-linejoin:miter;stroke-miterlimit:4;"/>
            </g>
            <g transform="matrix(1,0,0,1,179.268786,0)">
                <path d="M0,-5.245L-1.134,-4.111L-1.134,-1.134L0,0L24.582,0L25.716,-1.134L25.716,-4.111L24.582,-5.245L0,-5.245Z" style="fill:rgb(140,170,164);fill-rule:nonzero;stroke:black;stroke-width:0.32px;stroke-linejoin:miter;stroke-miterlimit:4;"/>
            </g>
        </g>
    </g>
    <g transform="matrix(4.166667,0,0,4.166667,83.111251,8.628278)">
        <path d="M0,20.58C5.556,20.58 10.06,15.974 10.06,10.29C10.06,4.606 5.556,0 0,0C-5.556,0 -10.06,4.606 -10.06,10.29C-10.06,15.974 -5.556,20.58 0,20.58" style="fill:white;fill-rule:nonzero;"/>
    </g>
    <g transform="matrix(4.166667,0,0,4.166667,83.111251,8.628278)">
        <path d="M0,20.58C5.556,20.58 10.06,15.974 10.06,10.29C10.06,4.606 5.556,0 0,0C-5.556,0 -10.06,4.606 -10.06,10.29C-10.06,15.974 -5.556,20.58 0,20.58Z" style="fill:none;fill-rule:nonzero;stroke:black;stroke-width:0.63px;stroke-linejoin:miter;stroke-miterlimit:4;"/>
    </g>
    <g transform="matrix(4.166667,0,0,4.166667,83.111251,13.542028)">
        <path d="M0,18.221C4.921,18.221 8.91,14.142 8.91,9.111C8.91,4.079 4.921,0 0,0C-4.921,0 -8.911,4.079 -8.911,9.111C-8.911,14.142 -4.921,18.221 0,18.221" style="fill:white;fill-rule:nonzero;"/>
    </g>
    <g transform="matrix(4.166667,0,0,4.166667,83.111251,13.542028)">
        <path d="M0,18.221C4.921,18.221 8.91,14.142 8.91,9.111C8.91,4.079 4.921,0 0,0C-4.921,0 -8.911,4.079 -8.911,9.111C-8.911,14.142 -4.921,18.221 0,18.221Z" style="fill:none;fill-rule:nonzero;stroke:black;stroke-width:0.16px;stroke-linejoin:miter;stroke-miterlimit:4;"/>
    </g>
    <g transform="matrix(4.166667,0,0,4.166667,232.501668,8.628278)">
        <path d="M0,20.58C5.556,20.58 10.06,15.974 10.06,10.29C10.06,4.606 5.556,0 0,0C-5.556,0 -10.06,4.606 -10.06,10.29C-10.06,15.974 -5.556,20.58 0,20.58" style="fill:white;fill-rule:nonzero;"/>
    </g>
    <g transform="matrix(4.166667,0,0,4.166667,232.501668,8.628278)">
        <path d="M0,20.58C5.556,20.58 10.06,15.974 10.06,10.29C10.06,4.606 5.556,0 0,0C-5.556,0 -10.06,4.606 -10.06,10.29C-10.06,15.974 -5.556,20.58 0,20.58Z" style="fill:none;fill-rule:nonzero;stroke:black;stroke-width:0.63px;stroke-linejoin:miter;stroke-miterlimit:4;"/>
    </g>
    <g transform="matrix(4.166667,0,0,4.166667,232.501668,13.542028)">
        <path d="M0,18.221C4.921,18.221 8.911,14.142 8.911,9.111C8.911,4.079 4.921,0 0,0C-4.921,0 -8.91,4.079 -8.91,9.111C-8.91,14.142 -4.921,18.221 0,18.221" style="fill:white;fill-rule:nonzero;"/>
    </g>
    <g transform="matrix(4.166667,0,0,4.166667,232.501668,13.542028)">
        <path d="M0,18.221C4.921,18.221 8.911,14.142 8.911,9.111C8.911,4.079 4.921,0 0,0C-4.921,0 -8.91,4.079 -8.91,9.111C-8.91,14.142 -4.921,18.221 0,18.221Z" style="fill:none;fill-rule:nonzero;stroke:black;stroke-width:0.16px;stroke-linejoin:miter;stroke-miterlimit:4;"/>
    </g>
    <g transform="matrix(4.166667,0,0,4.166667,381.892918,8.628278)">
        <path d="M0,20.58C5.556,20.58 10.06,15.974 10.06,10.29C10.06,4.606 5.556,0 0,0C-5.556,0 -10.06,4.606 -10.06,10.29C-10.06,15.974 -5.556,20.58 0,20.58" style="fill:white;fill-rule:nonzero;"/>
    </g>
    <g transform="matrix(4.166667,0,0,4.166667,381.892918,8.628278)">
        <path d="M0,20.58C5.556,20.58 10.06,15.974 10.06,10.29C10.06,4.606 5.556,0 0,0C-5.556,0 -10.06,4.606 -10.06,10.29C-10.06,15.974 -5.556,20.58 0,20.58Z" style="fill:none;fill-rule:nonzero;stroke:black;stroke-width:0.63px;stroke-linejoin:miter;stroke-miterlimit:4;"/>
    </g>
    <g transform="matrix(4.166667,0,0,4.166667,381.892918,13.542028)">
        <path d="M0,18.221C4.921,18.221 8.91,14.142 8.91,9.111C8.91,4.079 4.921,0 0,0C-4.921,0 -8.91,4.079 -8.91,9.111C-8.91,14.142 -4.921,18.221 0,18.221" style="fill:white;fill-rule:nonzero;"/>
    </g>
    <g transform="matrix(4.166667,0,0,4.166667,381.892918,13.542028)">
        <path d="M0,18.221C4.921,18.221 8.91,14.142 8.91,9.111C8.91,4.079 4.921,0 0,0C-4.921,0 -8.91,4.079 -8.91,9.111C-8.91,14.142 -4.921,18.221 0,18.221Z" style="fill:none;fill-rule:nonzero;stroke:black;stroke-width:0.16px;stroke-linejoin:miter;stroke-miterlimit:4;"/>
    </g>
    <g transform="matrix(4.166667,0,0,4.166667,531.283335,8.628278)">
        <path d="M0,20.58C5.556,20.58 10.06,15.974 10.06,10.29C10.06,4.606 5.556,0 0,0C-5.556,0 -10.06,4.606 -10.06,10.29C-10.06,15.974 -5.556,20.58 0,20.58" style="fill:white;fill-rule:nonzero;"/>
    </g>
    <g transform="matrix(4.166667,0,0,4.166667,531.283335,8.628278)">
        <path d="M0,20.58C5.556,20.58 10.06,15.974 10.06,10.29C10.06,4.606 5.556,0 0,0C-5.556,0 -10.06,4.606 -10.06,10.29C-10.06,15.974 -5.556,20.58 0,20.58Z" style="fill:none;fill-rule:nonzero;stroke:black;stroke-width:0.63px;stroke-linejoin:miter;stroke-miterlimit:4;"/>
    </g>
    <g transform="matrix(4.166667,0,0,4.166667,531.283335,13.542028)">
        <path d="M0,18.221C4.921,18.221 8.91,14.142 8.91,9.111C8.91,4.079 4.921,0 0,0C-4.921,0 -8.91,4.079 -8.91,9.111C-8.91,14.142 -4.921,18.221 0,18.221" style="fill:white;fill-rule:nonzero;"/>
    </g>
    <g transform="matrix(4.166667,0,0,4.166667,531.283335,13.542028)">
        <path d="M0,18.221C4.921,18.221 8.91,14.142 8.91,9.111C8.91,4.079 4.921,0 0,0C-4.921,0 -8.91,4.079 -8.91,9.111C-8.91,14.142 -4.921,18.221 0,18.221Z" style="fill:none;fill-rule:nonzero;stroke:black;stroke-width:0.16px;stroke-linejoin:miter;stroke-miterlimit:4;"/>
    </g>
    <g transform="matrix(4.166667,0,0,4.166667,680.673751,8.628278)">
        <path d="M0,20.58C5.556,20.58 10.06,15.974 10.06,10.29C10.06,4.606 5.556,0 0,0C-5.556,0 -10.06,4.606 -10.06,10.29C-10.06,15.974 -5.556,20.58 0,20.58" style="fill:white;fill-rule:nonzero;"/>
    </g>
    <g transform="matrix(4.166667,0,0,4.166667,680.673751,8.628278)">
        <path d="M0,20.58C5.556,20.58 10.06,15.974 10.06,10.29C10.06,4.606 5.556,0 0,0C-5.556,0 -10.06,4.606 -10.06,10.29C-10.06,15.974 -5.556,20.58 0,20.58Z" style="fill:none;fill-rule:nonzero;stroke:black;stroke-width:0.63px;stroke-linejoin:miter;stroke-miterlimit:4;"/>
    </g>
    <g transform="matrix(4.166667,0,0,4.166667,680.673751,13.542028)">
        <path d="M0,18.221C4.921,18.221 8.91,14.142 8.91,9.111C8.91,4.079 4.921,0 0,0C-4.921,0 -8.91,4.079 -8.91,9.111C-8.91,14.142 -4.921,18.221 0,18.221" style="fill:white;fill-rule:nonzero;"/>
    </g>
    <g transform="matrix(4.166667,0,0,4.166667,680.673751,13.542028)">
        <path d="M0,18.221C4.921,18.221 8.91,14.142 8.91,9.111C8.91,4.079 4.921,0 0,0C-4.921,0 -8.91,4.079 -8.91,9.111C-8.91,14.142 -4.921,18.221 0,18.221Z" style="fill:none;fill-rule:nonzero;stroke:black;stroke-width:0.16px;stroke-linejoin:miter;stroke-miterlimit:4;"/>
    </g>
    <g transform="matrix(4.166667,0,0,4.166667,830.064585,8.628278)">
        <path d="M0,20.58C5.556,20.58 10.06,15.974 10.06,10.29C10.06,4.606 5.556,0 0,0C-5.556,0 -10.06,4.606 -10.06,10.29C-10.06,15.974 -5.556,20.58 0,20.58" style="fill:white;fill-rule:nonzero;"/>
    </g>
    <g transform="matrix(4.166667,0,0,4.166667,830.064585,8.628278)">
        <path d="M0,20.58C5.556,20.58 10.06,15.974 10.06,10.29C10.06,4.606 5.556,0 0,0C-5.556,0 -10.06,4.606 -10.06,10.29C-10.06,15.974 -5.556,20.58 0,20.58Z" style="fill:none;fill-rule:nonzero;stroke:black;stroke-width:0.63px;stroke-linejoin:miter;stroke-miterlimit:4;"/>
    </g>
    <g transform="matrix(4.166667,0,0,4.166667,830.064585,13.542028)">
        <path d="M0,18.221C4.921,18.221 8.91,14.142 8.91,9.111C8.91,4.079 4.921,0 0,0C-4.921,0 -8.91,4.079 -8.91,9.111C-8.91,14.142 -4.921,18.221 0,18.221" style="fill:white;fill-rule:nonzero;"/>
    </g>
    <g transform="matrix(4.166667,0,0,4.166667,830.064585,13.542028)">
        <path d="M0,18.221C4.921,18.221 8.91,14.142 8.91,9.111C8.91,4.079 4.921,0 0,0C-4.921,0 -8.91,4.079 -8.91,9.111C-8.91,14.142 -4.921,18.221 0,18.221Z" style="fill:none;fill-rule:nonzero;stroke:black;stroke-width:0.16px;stroke-linejoin:miter;stroke-miterlimit:4;"/>
    </g>
    <g transform="matrix(1,0,0,1,-294.539615,-77.619493)">
        <g transform="matrix(1,0,0,1,337.714,196.072)">
            <text x="0px" y="0px" style="font-family:'ArialMT', 'Arial', sans-serif;font-size:20.833px;fill:white;">VIGEUR</text>
        </g>
    </g>
    <g transform="matrix(1,0,0,1,-145.149198,-77.619493)">
        <g transform="matrix(1,0,0,1,337.709,197.072)">
            <text x="0px" y="0px" style="font-family:'ArialMT', 'Arial', sans-serif;font-size:20.833px;fill:white;">AGILITÉ</text>
        </g>
    </g>
    <g transform="matrix(1,0,0,1,4.241635,-74.676258)">
        <g transform="matrix(1,0,0,1,324.976,191.598)">
            <text x="0px" y="0px" style="font-family:'ArialMT', 'Arial', sans-serif;font-size:14.583px;fill:white;">INTELLIGENCE</text>
        </g>
    </g>
    <g transform="matrix(1,0,0,1,153.632468,-77.619493)">
        <g transform="matrix(1,0,0,1,348.711,196.072)">
            <text x="0px" y="0px" style="font-family:'ArialMT', 'Arial', sans-serif;font-size:20.833px;fill:white;">RUSE</text>
        </g>
    </g>
    <g transform="matrix(1,0,0,1,303.022885,-77.619493)">
        <g transform="matrix(1,0,0,1,327.872,197.072)">
            <text x="0px" y="0px" style="font-family:'ArialMT', 'Arial', sans-serif;font-size:20.833px;fill:white;">VOLONTÉ</text>
        </g>
    </g>
    <g transform="matrix(1,0,0,1,452.413718,-77.619493)">
        <g transform="matrix(1,0,0,1,326.075,196.58)">
            <text x="0px" y="0px" style="font-family:'ArialMT', 'Arial', sans-serif;font-size:18.75px;fill:white;">PRÉSENCE</text>
        </g>
    </g>
</svg>
